<svg id="visual" viewBox="0 0 900 600" width="900" height="600" xmlns="http://www.w3.org/2000/svg" xmlns:xlink="http://www.w3.org/1999/xlink" version="1.1"><rect x="0" y="0" width="900" height="600" fill="#ffffff"></rect><path d="M0 284L129 230L257 235L386 238L514 148L643 135L771 223L900 293L900 601L771 601L643 601L514 601L386 601L257 601L129 601L0 601Z" fill="#6600ff"></path><path d="M0 264L129 205L257 296L386 324L514 300L643 269L771 229L900 351L900 601L771 601L643 601L514 601L386 601L257 601L129 601L0 601Z" fill="#432ed1"></path><path d="M0 382L129 325L257 323L386 323L514 340L643 342L771 279L900 329L900 601L771 601L643 601L514 601L386 601L257 601L129 601L0 601Z" fill="#34369f"></path><path d="M0 377L129 407L257 474L386 412L514 446L643 443L771 465L900 427L900 601L771 601L643 601L514 601L386 601L257 601L129 601L0 601Z" fill="#32356b"></path><path d="M0 547L129 540L257 488L386 500L514 513L643 535L771 524L900 458L900 601L771 601L643 601L514 601L386 601L257 601L129 601L0 601Z" fill="#303037"></path></svg>