<svg id="visual" viewBox="0 0 900 600" width="900" height="600" xmlns="http://www.w3.org/2000/svg" xmlns:xlink="http://www.w3.org/1999/xlink" version="1.1"><rect x="0" y="0" width="900" height="600" fill="#ffffff"></rect><path d="M0 252L129 298L257 231L386 294L514 184L643 245L771 109L900 129L900 601L771 601L643 601L514 601L386 601L257 601L129 601L0 601Z" fill="#9bd3a6"></path><path d="M0 285L129 198L257 333L386 189L514 252L643 289L771 213L900 361L900 601L771 601L643 601L514 601L386 601L257 601L129 601L0 601Z" fill="#7db685"></path><path d="M0 321L129 341L257 316L386 421L514 347L643 419L771 422L900 344L900 601L771 601L643 601L514 601L386 601L257 601L129 601L0 601Z" fill="#609a65"></path><path d="M0 435L129 446L257 401L386 396L514 411L643 459L771 376L900 405L900 601L771 601L643 601L514 601L386 601L257 601L129 601L0 601Z" fill="#447f46"></path><path d="M0 537L129 525L257 457L386 512L514 473L643 510L771 466L900 482L900 601L771 601L643 601L514 601L386 601L257 601L129 601L0 601Z" fill="#276428"></path></svg>